# xmcd
#
# Track frame offsets:
#	150
#	17401
#	32325
#	46798
#	60856
#	75511
#	91634
#	104563
#	118526
#	140487
#	153986
#	169939
#	181618
#	199318
#
# Disc length: 2876 seconds
#
# Revision: 2
# Processed by: cddbd v1.5.1PL0 Copyright (c) Steve Scherf et al.
# Submitted via: EasyCDDAExtractor 7.0.4.1
#
DISCID=9b0b3a0e
DTITLE=TEDDY MAX
DYEAR=1900
DGENRE=
TTITLE0=Um Grande Amor
TTITLE1=Tente Outra Vez
TTITLE2=Nossas Diferenças
TTITLE3=Eu Tô de Olho Nela
TTITLE4=Alô! Alô!  (Tira o Pé do Chão)
TTITLE5=Maluco e Travesso
TTITLE6=Ao Por do Sol
TTITLE7=Rebolado Dela
TTITLE8=Você tem um Amigo
TTITLE9=Chiclete na Botina
TTITLE10=Quero Casar com Você
TTITLE11=Têmpero Bom
TTITLE12=Só Você
TTITLE13=Eu Tô que Tô
EXTD=
EXTT0=
EXTT1=
EXTT2=
EXTT3=
EXTT4=
EXTT5=
EXTT6=
EXTT7=
EXTT8=
EXTT9=
EXTT10=
EXTT11=
EXTT12=
EXTT13=
PLAYORDER=
